/* XPM */
static char *_c0233e284dd4e0ef145577e788904efp2XiPFAVvdA6M5YB[] = {
/* columns rows colors chars-per-pixel */
"64 64 226 2 ",
"   c #7F1D0A",
".  c #5E7C0D",
"X  c #5B7C10",
"o  c #607C0E",
"O  c #657D15",
"+  c #831F0C",
"@  c #84210E",
"#  c #882915",
"$  c #8F321E",
"%  c #8A3722",
"&  c #903520",
"*  c #8E5827",
"=  c #945834",
"-  c #A14D36",
";  c #A7543E",
":  c #A95F26",
">  c #97682D",
",  c #977130",
"<  c #AD6224",
"1  c #A6632C",
"2  c #A86F2B",
"3  c #9E5944",
"4  c #AD5842",
"5  c #B25E48",
"6  c #8D6747",
"7  c #937155",
"8  c #B26B54",
"9  c #C5775F",
"0  c #C77C64",
"q  c #6B8214",
"w  c #7D8E1A",
"e  c #718616",
"r  c #69810F",
"t  c #83921C",
"y  c #8B961E",
"u  c #8A951B",
"i  c #8C9921",
"p  c #899720",
"a  c #939C23",
"s  c #97992B",
"d  c #87842C",
"f  c #9AA22B",
"g  c #A5A929",
"h  c #B2B22E",
"j  c #ABA633",
"k  c #BCBA35",
"l  c #B7B635",
"z  c #AFB02E",
"x  c #B38B34",
"c  c #CCBB3E",
"v  c #C4B83E",
"b  c #C3AE3F",
"n  c #CAC43A",
"m  c #D4CC3B",
"M  c #D4C23F",
"N  c #DCD23E",
"B  c #E8D53E",
"V  c #E6CE3F",
"C  c #FEEA3E",
"Z  c #F9E43D",
"A  c #998645",
"S  c #988858",
"D  c #A18D4D",
"F  c #AA984A",
"G  c #B29D4B",
"H  c #A8985F",
"J  c #B19D55",
"K  c #B4A243",
"L  c #BEAB46",
"P  c #B6A24C",
"I  c #BDA44B",
"U  c #BBA749",
"Y  c #BDAA54",
"T  c #B6A45E",
"R  c #B9A65C",
"E  c #BAA959",
"W  c #968869",
"Q  c #98927B",
"!  c #9D8979",
"~  c #AA9B68",
"^  c #AA9D74",
"/  c #A69974",
"(  c #BC9778",
")  c #B58570",
"_  c #AEA06B",
"`  c #B5A463",
"'  c #B5A46A",
"]  c #BAA965",
"[  c #ADA074",
"{  c #B3A474",
"}  c #B4A67B",
"|  c #B7AA7B",
" . c #C2AE44",
".. c #C2AE4C",
"X. c #C1A640",
"o. c #C6B245",
"O. c #CAB646",
"+. c #CDB944",
"@. c #C6B24C",
"#. c #CAB54A",
"$. c #CEB949",
"%. c #D2BD45",
"&. c #D2BD4A",
"*. c #C1AD53",
"=. c #C6B051",
"-. c #CAB655",
";. c #D1BF58",
":. c #D48B71",
">. c #DA987A",
",. c #CF946F",
"<. c #E0997F",
"1. c #DAA77E",
"2. c #CDB36F",
"3. c #EABD67",
"4. c #EDB778",
"5. c #D5C145",
"6. c #DAC544",
"7. c #DDCA44",
"8. c #D5C149",
"9. c #D9C44B",
"0. c #DECB4A",
"q. c #DCD142",
"w. c #DCCB51",
"e. c #E2CD45",
"r. c #E3CE49",
"t. c #E5D344",
"y. c #EBD544",
"u. c #E5D942",
"i. c #EDDB44",
"p. c #E6D449",
"a. c #EAD549",
"s. c #ECD949",
"d. c #F2DD44",
"f. c #F2DE49",
"g. c #F3D64B",
"h. c #ECC85A",
"j. c #F5E244",
"k. c #FAE543",
"l. c #FEE942",
"z. c #F6E349",
"x. c #EFE040",
"c. c #DCC167",
"v. c #F4CD6D",
"b. c #5C578B",
"n. c #605A8B",
"m. c #736E8E",
"M. c #908A96",
"N. c #8D8794",
"B. c #A5998B",
"V. c #B39C8A",
"C. c #ACA187",
"Z. c #B4A781",
"A. c #B5A986",
"S. c #B6AB8B",
"D. c #B9AD8A",
"F. c #B3A787",
"G. c #B5AC96",
"H. c #BBB299",
"J. c #9C97A7",
"K. c #A19EB3",
"L. c #BDB6A2",
"P. c #BFB8A5",
"I. c #BFB8AC",
"U. c #BBB5AB",
"Y. c #B5B1B5",
"T. c #CC9F88",
"R. c #D59B83",
"E. c #E49D83",
"W. c #CAA18B",
"Q. c #D7A186",
"!. c #D7A48B",
"~. c #CCAC98",
"^. c #EAA78B",
"/. c #F1B489",
"(. c #ECAD91",
"). c #F1AC91",
"_. c #F5B293",
"`. c #F8B597",
"'. c #F9B59B",
"]. c #F7B698",
"[. c #EBB18A",
"{. c #C2B5A2",
"}. c #C3BCAC",
"|. c #C7B9A9",
" X c #C4BDB2",
".X c #C9BDB5",
"XX c #D5BBA4",
"oX c #CAC2AD",
"OX c #C7C1B4",
"+X c #CBC5BB",
"@X c #CDC8BD",
"#X c #C9C3B6",
"$X c #D2C6B5",
"%X c #E7D5BE",
"&X c #B3B1C1",
"*X c #C0BFCA",
"=X c #CECAC1",
"-X c #CAC6C0",
";X c #D2CDC4",
":X c #D2CEC8",
">X c #D5D2CB",
",X c #D9D5CD",
"<X c #D6D0C7",
"1X c #DAD6D1",
"2X c #DDDAD5",
"3X c #DFDDDA",
"4X c #CCCAD2",
"5X c #E1DFDA",
"6X c #E3DED3",
"7X c #E4E1DD",
"8X c #E6E4E2",
"9X c #EAE9E5",
"0X c #EDECEB",
"qX c #E8E7E1",
"wX c #F0EFEE",
"eX c #F1F1EE",
"rX c #F5F5F4",
"tX c #F9F9F7",
"yX c #FEFFFD",
"uX c #FFFFFE",
"iX c white",
"pX c #FEFFFE",
"aX c #FDFEFD",
"sX c #FFFFFE",
"dX c #F8F7F6",
"fX c #EFF1EE",
/* pixels */
"iXiXiXiXiXiXiXiXiXiXiXiXiXiXiXiXiXiXiXiXiXiXiXiXiXiXiXiXiXiXiXiXiXiXiXiXiXiXiXiXiXiXiXiXiXiXiXiXiXiXiXiXiXiXiXiXiXiXiXiXiXiXiXiX",
"iXiXiXiXiXiXiXiXiXiXiXiXiXiXiXiXiXiXiXiXiXiXiXiXiXiXiXiXiXiXiXiXiXiXiXiXiXiXiXiXiXiXiXiXiXiXiXiXiXiXiXiXiXiXiXiXiXiXiXiXiXiXiXiX",
"iXiXiXiXiXiXiXiXiXiXiXiXiXiXiXiXiXiXiXiXiXiXiXiXiXiXiXiXiXiXiXiXiXiXiXiXiXiXiXiXiXiXiXiXiXiXiXiXiXiXiXiXiXiXiXiXiXiXiXiXiXiXiXiX",
"iXiXiXiXiXiXiXiXiXiXiXiXiXiXiXiXiXiXiXiXiXiXiXiXiXiXiXiXiXiXiXiXiXiXiXiXiXiXiXiXiXiXiXiXiXiXiXiXiXiXiXiXiXiXiXiXiXiXiXiXiXiXiXiX",
"iXiXiXiXiXiXiXiXiXiXiXiXiXiXiXiXiXiXiXiXiXiXiXiXiXiXiXiXiXiXiXiXiXiXiXiXiXiXiXiXiXiXiXiXiXiXiXiXiXiXiXiXiXiXiXiXiXiXiXiXiXiXiXiX",
"iXiXiXiXiXiXiXiXiXiXiXiXiXiXiXiXiXiXiXiXiXiXiXiXiXiXiXiXiXiXiXiXiXiXiXiXiXiXiXiXiXiXiXiXiXiXiXiXiXiXiXiXiXiXiXiXiXiXiXiXiXiXiXiX",
"iXiXiXiXiXiXiXiXiXiXiXiXiXiXiXiXiXiXiXiXiXiXiXiXiXiXiXiXiXiXiXiXiXiXiXiXiXiXiXiXiXiXiXiXiXiXiXiXiXiXiXiXiXiXiXiXiXiXiXiXiXiXiXiX",
"iXiXiXiXiXiXiXiXiXiXiXiXiXiXiXiXiXiXiXiXiXiXiXiXiXiXiXiXiXiXiXiXiXiXiXiXiXiXiXiXiXiXiXiXiXiXiXiXiXiXiXiXiXiXiXiXiXiXiXiXiXiXiXiX",
"iXiXiXiXiXiXiXiXiXiXiXiXiXiXiXiXiXiXiXiXiXiXiXiXiXiXiXiXiXiXiXiXiXiXiXiXiXiXiXiXiXiXiXiXiXiXiXiXiXiXiXiXiXiXiXiXiXiXiXiXiXiXiXiX",
"iXiXiXiXiXiXiXiXiXiXiXiXiXiXiXiXiXiXiXiXiXiXiXiXiXiXiXiXiXiXiXiXiXiXiXiXiXiXiXiXiXiXiXiXiXiXiXiXiXiXiXiXiXiXiXiXiXiXiXiXiXiXiXiX",
"iXiXiXiXiXiXiXiXiXiXiXiXiXiXiXiXiXiXiXiXiXiXiXiXiXiXiXiXiXiXiXiXiXiXiXiXiXiXiXiXiXiXiXiXiXiXiXiXiXiXiXiXiXiXiXiXiXiXiXiXiXiXiXiX",
"iXiXiXiXiXiXiXiXiXiXiXiXiXiXiXiXiXiXiXiXiXiXiXiXiXiXiXiXiXiXiXiXiXiXiXiXiXiXiXiXiXiXiXiXiXiXiXiXiXiXiXiXiXiXiXiXiXiXiXiXiXiXiXiX",
"iXiXiXiXiXiXiXiXiXiXiXiXiXiXiXiXiXiXiXiXiXiXiXiXiXiXiXiXiXiXiXiXiXiXiXiXiXiXiXiXiXiXiXiXiXiXiXiXiXiXiXiXiXiXiXiXiXiXiXiXiXiXiXiX",
"iXiXiXiXiXiXiXiXiXiXiXiXiXiXiXiXiXiXiXiXiXiXiXiXiXiXiXiXiXiXiXiXiXiXiXiXiXiXiXiXiXiXiXiXiXiXiXiXiXiXiXiXiXiXiXiXiXiXiXiXiXiXiXiX",
"iXiXiXiXiXiXiXiXiXiXiXiXiXiXiXiXiXiXiXiXiXiXiXiXiXiXiXiXiXiXiXiXiXiXiXiXiXiXiXiXiXiXiXiXiXiXiXiXiXiXiXiXiXiXiXiXiXiXiXiXiXiXiXiX",
"iXiXiXiXiXiXiXiXiXiXiXiXiXiXiXiXiXiXiXiXiXiXiXiXaXiXiXaXiXaXiXiXaXiXiXiXiXiXiXiXiXiXiXiXiXiXiXiXiXiXiXiXiXiXiXiXiXiXiXiXiXiXiXiX",
"iXiXiXiXiXiXiXiXiXiXiXiXiXiXiXiXiXiXiXiXaXiXaXaXaXaXaXaXaXaXaXaXaXpXpXiXiXiXiXiXiXiXiXiXiXiXiXiXiXiXiXiXiXiXiXiXiXiXiXiXiXiXiXiX",
"iXiXiXiXiXiXiXiXiXiXiXiXiXiXiXiXiXiXiXiXiXaXaXdXtXiXaXtXaXaX9XrXaXpXiXiXiXiXiXpXiXiXiXiXiXiXiXiXiXiXiXiXiXiXiXiXiXiXiXiXiXiXiXiX",
"iXiXiXiXiXiXiXiXiXiXiXiXiXiXiXiXiXiXiXiXiXiX<X~ A.:XP.^ @X}.~ G.dXtXpXpXpXiXpXpXiXiXiXiXiXiXiXiXiXiXiXiXiXiXiXiXiXiXiXiXiXiXiXiX",
"iXiXiXiXiXiXiXiXiXiXiXiXiXiXiXiXiXiXiXiXiXtX} y.0.A =.r.+.o.y.F Q Q P.rXiXiXaXpXaXpXpXiXiXiXiXiXiXiXiXiXiXiXiXiXiXiXiXiXiXiXiXiX",
"iXiXiXiXiXiXiXiXiXiXiXiXiXiXiXiXiXiXiXiXiX0X` k.l.t.&.O.s.h k w O j $.A.oX#XfXpXrXrXpXpXiXiXpXpXiXiXiXiXiXiXiXiXiXiXiXiXiXiXiXiX",
"iXiXiXiXiXiXiXiXiXiXiXiXiXiXiXiXiXiXiXiXaXH.8.l.l.l.l.s.O.L -.q.q.k.l.7.o.L | G.^ [ -X0XrXtXpXpXiXiXiXiXiXiXiXiXiXiXiXiXiXiXiXiX",
"iXiXiXiXiXiXiXiXiXiXiXiXiXiXiXiXiXiXiXaXrX~ i.k.l.l.l.l.k.k.t.O.6.8.s.f q g y.c s n -.~ ^ W C.3XiXiXiXiXiXiXiXiXiXiXiXiXiXiXiXiX",
"iXiXiXiXiXiXiXiXiXiXiXiXiXiXiXaXiXiXiX@X^ F %.j.C 0.8.p.a.j.l.s.e.q.O.K d j k.j.N z.+.o.L &.l OXiXiXiXiXiXiXiXiXiXiXiXiXiXiXiXiX",
"iXiXiXiXiXiXiXiXiXiXiXiXiXiXaXaXaXiXiXG.L s.k.l.k.%.O.#.@.&.k.C l.l.j.i.z.+.$.+.8.@.8.z.k.l.5.OXiXiXiXiXiXiXiXiXiXiXiXiXiXiXiXiX",
"iXiXiXiXiXiXiXiXiXiXiXiXiXiXiXaX7X=XeXrXOXS E w.s.p.8.5.%.p.l.l.l.l.C B N j.t.$.8.q.z.l.C l.8.=XiXiXiXiXiXiXiXiXiXiXiXiXiXiXiXiX",
"iXiXiXiXiXiXiXiXiXiXiXiXiXaXiXtX{ L D.rX Xm.M.#X[ P -.0.s.x.x.z.j.l.i.t r z l.+.z.n w 5.l.l.8.>XiXiXiXiXiXiXiXiXiXiXiXiXiXiXiXiX",
"iXiXiXiXiXiXiXiXiXiXiXiXiXiXiXtX| d.&.F.M.n.n.4X@XW M.U.oX| P O.8.j.j.g o t s.+.z.p r e u.C q.A.rXiXiXiXiXiXiXiXiXiXiXiXiXiXiXiX",
"iXiXiXiXiXiXiXiXiXiXiXiXiXiXiXaX,X` y.O.W J.K.wX+XN.n.K.iX8Xc.k.k.l.l.k.m q.k.+.p.p r r l l.C Y 3XiXiXiXiXiXiXiXiXiXiXiXiXiXiXiX",
"iXiXiXiXiXiXiXiXiXiXiXiXiXiXiXaXiX2X{ 9.6.2.6X9XY.&Xm.*XiXqX8.l.l.l.l.C l.l.l.7.9.f X X a j.k.R 0XiXiXiXiXiXiXiXiXiXiXiXiXiXiXiX",
"iXiXiXiXiXiXiXiXiXiXiXiXiXiXiXaXaXiX0XF.I 9.-.2.| fXfXaXiX$X0.k.C l.l.l.l.l.l.s.8.k o X y k.d.| tXiXiXiXiXiXiXiXiXiXiXiXiXiXiXiX",
"iXiXiXiXiXiXiXiXiXiXiXiXiXiXaXiXaXrX1XW.^.Q.2.v.c.oXfX0X@X` $.j.C l.l.l.l.l.l.0.0.i.a e k l.s.D.iXiXaXiXiXiXiXiXiXiXiXiXiXiXiXiX",
"iXiXiXiXiXiXiXiXiXiXiXiXaXiXdX7X.X~.W.(.'.'.'.'.].1.( ] G O.r.p.l.l.l.l.l.l.l.%.i.l.x.u.k.l.k.' fXiXiXiXiXiXiXiXiXiXiXiXiXiXiXiX",
"iXiXiXiXiXiXiXiXiXiXiXiXaX6X~.V.(.R.8 4 4 5 ,.(.^.'./.h.j.e.d.d.l.l.l.l.C l.l.%.t.l.l.l.x.n j.@.<XpXiXiXiXiXiXiXiXiXiXiXiXiXiXiX",
"iXiXiXiXiXiXiXiXiXiXiXtX$XT.8 4 <X4         ) 3 & 8 )./.h.d.d.y.l.l.l.l.l.l.l.i.+.k.k.k.u.e l 6.OXiXiXiXiXiXiXiXiXiXiXiXiXiXiXiX",
"iXiXiXiXiXiXiXiXiXiXiX,XT.<.# % XX%   # #   8 % @ @ - <./.g.k.g.l.l.l.l.l.l.l.l.8.8.O.$.0.p w O.@XiXiXiXiXiXiXiXiXiXiXiXiXiXiXiX",
"iXiXiXiXiXiXiXiXiXiXiX@XR.(.4 % 8 %   % $ $ - 0 >.9 ; - >.4.f.l.v m k.C l.l.l.C 8.K q.x.$.L n =.1XiXaXaXiXiXiXiXiXiXiXiXiXiXiXiX",
"iXiXiXiXiXiXiXiXiXiXiXeX~.^.).E.,.:.:.>.E.E.).'.'.'.`.^.>._.h.l.y q N l.C l.C j.5.8.q.l.f.9.$.J 3XiXaXaXiXiXiXiXiXiXiXiXiXiXiXiX",
"iXiXiXiXiXiXiXiXiXiXaXiX9X{.W.^.(._.)._.'.'.'.'.'.'.'.'.'.'.3.j.N z i.l.C l.l.j.+.z.f.l.6.O.9.G L.rXiXiXiXiXiXiXiXiXiXiXiXiXiXiX",
"iXiXiXiXiXiXiXiXiXaXaXaXpXpX5XV.R.).).`.'.'.'.'.'.'.'.'._.).3.l.l.l.l.l.l.l.l.l.8.u.l.l.l.i.$.9.$.S.0XaXaXiXiXiXiXiXiXiXiXiXiXiX",
"iXiXiXiXiXiXiXiXiXaXaXiXtX<X{ #.4.'.'.'.'.'.'.'.'.'.'.'.'.4.g.C l.C l.l.C l.l.l.s.%.j.k N l.j.5.&.9.{ 5XaXaXiXiXiXiXiXiXiXiXiXiX",
"iXiXiXiXiXiXaXiXiXaXaX5XS.*.e.@.>.'.'.'.'.'.'.'.'.'.'.'.'./.f.C C l.l.l.l.l.l.l.i.5.q.r p x.l.l.L G 6.` <XaXiXiXiXiXiXiXiXiXiXiX",
"aXiXrXeXrXrXdXtXaX9X{.R e.%.' @X{.(.'.'.'.'.'.'.'.'.'.'.'.4.k.l.l.l.l.l.l.l.l.l.q.6.x.w r N l.k.] -X' 6.Y OXaXiXaXaXiXiXiXiXiXiX",
"tXOX~ ~ _ ' ' } D.` %.e.E {.0XiX7XW._.'.'.'.'.'.'.'.'.'.`.3.l.l.l.C l.C l.l.l.C 5.i.Z n h j.l.Z ' rX7X{ 5...H.dXaXaXiXiXiXiXiXiX",
"@XS  .#.e.j.j.d.d.d.@.S.2XaXiXaXiX$XQ.'.'.'.'.'.'.'.'.'./.g.C l.l.l.C l.k.l.l.l.5.t.l.l.l.l.l.k.] 9XiX0XS.#.#.H.dXiXiXiXiXiXiXiX",
"S.o.a.%.+.6.$.&.B a./ 9XiXaXaXaXiXaX|.Q.`.'.'.'.'.'.'./.3.k.l.l.l.l.l.N a z x.C s.+.l.l.l.x.k j.$.@XiXiXdX{.*.@.H.rXiXiXaXiXaXiX",
"/ #.O.t.*.H.;X#X} &.9.H.tXiXiXiXiXiXrX X,./.`.'.`.`./.h.Z C l.l.C C l.k . o g l.l.c j.l.l.u.a u.6.oXiXaXiXtX#X*.@.H.0XdXiXiXaXiX",
",XW e.$.{.tXiXiXrX{ d.` eXiXiXiXiXiXaX0X] h.3.3.3.,.I 7.y.k.k.k.l.l.l.t.y e l l.k.+.l.Z k.l.z.z.O.}.iXiXiXrX,X/ t.$.` { OXeXaXaX",
"iXL.H {.dXaXaXaXaXD.B ] wXiXiXiXiXiXaXqX` z u.l.k.L * > > d o.c +.8.5.6.8.$.q.s.e.o.i.i.p.5.+.O.F :XiXaXtXG.Y 0.d.l.Z d.+.} 6XiX",
"aXtXwXaXiXaXaXaXaXA.6.{ tXiXiXiXiXiXtXD.8.m i.m q.x : < 1 , a.k.i.i.p.t.7.7.6.5.L G %.%.6.p.d.l.@.,XiXiX>XL 0.` { o.k.C k.#.^ 9X",
"iXiXiXiXaXiXiXaXaXoX/ ,XaXiXiXiXiXaXdX^ c B j.t s 2 < < < 2 d.l.C l.l.l.l.q.N C y.5.l.N m j.C l.7.{.aXiXP.7.T 8XrX X..s.7.9.G L.",
"iXiXiXiXiXiXiXiXaXaXrXaXaXiXaXaXaXiX0XV.F G e.v K 1 < < < 2 z.l.C l.l.l.Z a t B j.%.j.a t i.l.l.V H.aXaX+XF Z.tXiXaX{.@.A 8.P C.",
"iXiXiXiXiXiXiXiXiXiXiXiXiXiXaXaXdX;X' @.T G./ F.7 > < < < 2 Y @.e.l.l.k.d.N N l.j.%.k.t.t.k.d.6.P <XiXaXdX;XqXiXiXiX8X*.P D  .B.",
"iXiXiXiXiXiXiXaXiXiXiXiXiXiXiX7XS.....} 2XiXtX8X6 < < < < 6 #X,XS.Y @.` } ' #.B 7.U L @. .R } }.;XtXaXaXiXiXiXiXiXiX8XY +.S P  X",
"iXiXiXiXiXiXiXaXaXtX0X0X9X,X{.T %.` }.rXiXpXpX+X* < < < < 7 rXiXtX1X<XwXtXwX=X{ S B.C.=. .}.tXaXiXiXiXiXiXiXaXiXiXaX7X*.&.G.G.8X",
"iXiXiXiXiXiXiXaXtX}.H R E #.6.a.~ 2XpXiXiXpXaXB.* < < < : 7 rXiXiXiXiXiXiXiXiXrXeXaXtXD.%.{ eXiXiXiXiXiXiXiXiXiXiXiXfX/ ~ 3XiXaX",
"iXiXiXiXiXiXaXaX0XS e.C l.l.l.6.L.iXiXpXiXpXaX XQ 7 6 = * 7 rXiXiXiXiXiXiXiXiXpXiXiXaXqX] +.{.aXiXiXiXiXiXiXiXiXiXaXaX9X7XaXaXaX",
"iXiXiXiXiXiXaXiX2XS p.t.*.R R ^ 3XpXpXpXiXiXpXiXiXrX9X1XY. XdXiXiXiXiXiXiXiXiXiXaXiXaXaXOX=.Y @XtXiXaXaXiXaXiXiXiXiXiXaXiXiXaXiX",
"iXiXiXiXiXiXiXiX;XF ..A.,X9X9XrXpXiXiXiXiXiXiXiXiXiXiXiXiXiXpXiXiXiXiXiXiXiXiXiXiXiXaXaX7X~ B @.| @X0XaXaXaXiXiXiXiXiXiXiXiXiXiX",
"iXiXiXiXiXiXiXaXeXOX;XtXiXaXaXiXpXiXiXiXiXiXiXiXiXiXiXiXiXiXiXiXiXiXiXiXiXiXiXiXiXiXaXiXG.+.C l.y.#.` A.@XeXiXiXiXiXiXiXiXiXiXiX",
"iXiXiXiXiXiXaXaXaXiXiXiXiXiXiXiXiXiXiXiXiXiXiXiXiXiXiXiXiXiXiXiXiXiXiXiXiXiXiXiXiXiXaXiX;X_ ..e.l.C k.6.D }.iXiXiXiXiXiXiXiXiXiX",
"iXiXiXiXiXiXiXiXiXiXiXiXiXiXiXiXiXiXiXiXiXiXiXiXiXiXiXiXiXiXiXiXiXiXiXiXiXiXiXiXiXiXiXiXiXeX1XH.T %.a.%.D  XiXiXiXiXiXiXiXiXiXiX",
"iXiXiXiXiXiXiXiXiXiXiXiXiXiXiXiXiXiXiXiXiXiXiXiXiXiXiXiXiXiXiXiXiXiXiXiXiXiXiXiXiXiXiXiXiXiXaXaX9X+X} P W 0XaXiXiXiXiXiXiXiXiXiX",
"iXiXiXiXiXiXiXiXiXiXiXiXiXiXiXiXiXiXiXiXiXiXiXiXiXiXiXiXiXiXiXiXiXiXiXiXiXiXiXiXiXiXiXiXaXiXiXaXiXiXrX:X,XaXaXiXiXiXiXiXiXiXiXiX"
};
