/* XPM */
static char *d6dfa44772a042bfb116bb2e4569c5c3rhkk7O9od1WKB1jU[] = {
/* columns rows colors chars-per-pixel */
"64 64 239 2 ",
"   c #FF000000",
".  c #010101",
"X  c #0B0C0C",
"o  c #171716",
"O  c #0D110F",
"+  c #192517",
"@  c #352918",
"#  c #29391C",
"$  c #2C3219",
"%  c #292A2A",
"&  c #2A3725",
"*  c #373934",
"=  c #322E32",
"-  c #2E211F",
";  c #59161B",
":  c #711313",
">  c #4B2D1A",
",  c #70321A",
"<  c #48292B",
"1  c #553725",
"2  c #4A2F2C",
"3  c #6B3722",
"4  c #4C1D21",
"5  c #13431D",
"6  c #0E551A",
"7  c #02781A",
"8  c #0F6B1B",
"9  c #344827",
"0  c #3D5B2D",
"q  c #39532A",
"w  c #354936",
"e  c #3A5633",
"r  c #2D472E",
"t  c #057928",
"y  c #4D4F1D",
"u  c #6E4218",
"i  c #445E36",
"p  c #465F39",
"a  c #50562A",
"s  c #694627",
"d  c #7A4427",
"f  c #694F2D",
"g  c #466235",
"h  c #4B6C34",
"j  c #4D6C3B",
"k  c #496736",
"l  c #546531",
"z  c #546934",
"x  c #4D7337",
"c  c #51743C",
"v  c #537C3A",
"b  c #507837",
"n  c #44612D",
"m  c #65662C",
"M  c #0B1C4E",
"N  c #172C50",
"B  c #293A4A",
"V  c #2B334F",
"C  c #041D64",
"Z  c #102D72",
"A  c #263A67",
"S  c #4A1E47",
"D  c #482345",
"F  c #6F236B",
"G  c #631E5E",
"H  c #324550",
"J  c #4A4A4A",
"K  c #4A5A46",
"L  c #445A59",
"P  c #565756",
"I  c #4E6144",
"U  c #556748",
"Y  c #577A43",
"T  c #576C79",
"R  c #506967",
"E  c #696B67",
"W  c #6B7565",
"Q  c #727A6E",
"!  c #787C77",
"~  c #67735F",
"^  c #890B04",
"/  c #980B04",
"(  c #891109",
")  c #861914",
"_  c #901012",
"`  c #A70B07",
"'  c #B9120A",
"]  c #B20E0C",
"[  c #8E241E",
"{  c #B7231C",
"}  c #933026",
"|  c #A62E25",
" . c #C8150C",
".. c #C70111",
"X. c #C81D15",
"o. c #D71E14",
"O. c #D60811",
"+. c #E30013",
"@. c #FF0015",
"#. c #F90615",
"$. c #FE1618",
"%. c #D9241A",
"&. c #C62F19",
"*. c #DC332A",
"=. c #E6392F",
"-. c #FD3F1D",
";. c #AC551A",
":. c #87492B",
">. c #9B5331",
",. c #994C2F",
"<. c #A25633",
"1. c #A65934",
"2. c #AB5B39",
"3. c #A77230",
"4. c #905024",
"5. c #F7491E",
"6. c #C9631E",
"7. c #D4691F",
"8. c #F34F2D",
"9. c #FD6922",
"0. c #FD7C24",
"q. c #F87523",
"w. c #EA7322",
"e. c #D1652E",
"r. c #82287C",
"t. c #A66141",
"y. c #E95549",
"u. c #DF6458",
"i. c #02891E",
"p. c #019821",
"a. c #039724",
"s. c #099632",
"d. c #17A123",
"f. c #30AA27",
"g. c #56823C",
"h. c #59873E",
"j. c #4EB62A",
"k. c #67BF2D",
"l. c #0B8C54",
"z. c #108668",
"x. c #5C8445",
"c. c #5E8A44",
"v. c #5F9042",
"b. c #628C4A",
"n. c #648C46",
"m. c #629444",
"M. c #669B47",
"N. c #66924B",
"B. c #69974D",
"V. c #679A49",
"C. c #69984D",
"Z. c #6C9747",
"A. c #6B9551",
"S. c #758B48",
"D. c #7E8479",
"F. c #939530",
"G. c #BDBE32",
"H. c #FC8726",
"J. c #FC9429",
"K. c #FAA92E",
"L. c #F9B630",
"P. c #C3A02B",
"I. c #8ECE32",
"U. c #A8D535",
"Y. c #F7D538",
"T. c #D7EB3B",
"R. c #C8E539",
"E. c #EBF33E",
"W. c #F5F63F",
"Q. c #ECEA3C",
"!. c #CFD036",
"~. c #858561",
"^. c #062988",
"/. c #1B3886",
"(. c #183B9E",
"). c #032EA8",
"_. c #0433B8",
"`. c #0E37A7",
"'. c #203F9D",
"]. c #35538A",
"[. c #187D8E",
"{. c #2245B3",
"}. c #1F74B2",
"|. c #57708A",
" X c #637C8D",
".X c #5878A3",
"XX c #0537C8",
"oX c #043AD5",
"OX c #043EE6",
"+X c #2656CE",
"@X c #246EC9",
"#X c #0445FF",
"$X c #0643F4",
"%X c #0440ED",
"&X c #305CF1",
"*X c #2F61FE",
"=X c #2D63F6",
"-X c #2E64F5",
";X c #5C4ED6",
":X c #6B47C8",
">X c #4757E8",
",X c #8A2A83",
"<X c #9C3199",
"1X c #962E8F",
"2X c #A03198",
"3X c #883BAD",
"4X c #6C869A",
"5X c #7B9AB4",
"6X c #728EA7",
"7X c #7FA0BB",
"8X c #7FA1C0",
"9X c #878A86",
"0X c #969896",
"qX c #96A6B2",
"wX c #A6A6A6",
"eX c #BABBBB",
"rX c #F2968B",
"tX c #88AAC7",
"yX c #91B3CF",
"uX c #BFBFC0",
"iX c #9DC6E7",
"pX c #A3C9E8",
"aX c #ACD8FD",
"sX c #A9D3F7",
"dX c #B3DBFD",
"fX c #B9DDFA",
"gX c #ABCEEB",
"hX c #BEE0FE",
"jX c #D6D7D7",
"kX c #C6C8CA",
"lX c #C7E5FE",
"zX c #D8EDFE",
"xX c #E6E6E6",
"cX c #E1F1FE",
"vX c #EBF6FF",
"bX c #FEFEFE",
"nX c #F5F6F7",
"mX c #FCEBE9",
"MX c #F6D7D5",
/* pixels */
"                                                                                                                                ",
"                                                                                                                                ",
"                                                                                                                                ",
"                                                                                                                                ",
"                                                                                                                                ",
"                                                                                                                                ",
"                                                        m m F.F.F.F.3.n     & + 5 5 5 5 5     N N V                             ",
"                                                  m F.G.Q.W.W.W.W.W.W.U.8 7 a.p.p.p.a.a.a.7 t [.*X+X'.V                         ",
"                                  1 > >     l F.!.W.W.W.W.W.W.W.W.W.U.d.p.p.p.p.p.p.p.p.p.p.a.}.*X*X*X{.B                       ",
"                            1 :.6.7.w.w.7.P.Q.W.W.W.W.W.W.W.W.W.W.R.d.p.p.p.p.p.p.p.p.p.p.p.z.*X*X*X*X*X{.N V                   ",
"                        1 ;.q.0.0.0.0.H.L.W.W.W.W.W.W.W.W.W.W.W.W.I.p.p.p.p.p.p.p.p.p.p.a.p.l.*X*X*X*X*X&X*X&X{.A               ",
"                      1 6.0.0.0.0.0.0.K.W.W.W.W.W.W.W.W.W.W.W.W.W.T.d.p.p.p.p.p.p.p.p.p.a.a.a.@X*X*X*X*X*X*X*X*X&XA             ",
"                    > 6.H.0.0.0.0.0.J.Q.W.W.W.W.W.W.W.W.W.W.W.W.W.E.j.p.p.p.p.p.p.p.p.p.p.p.p.[.*X*X*X*X*X*X*X*X*X*XV           ",
"                2 d 7.0.0.0.0.0.0.0.K.W.W.W.W.W.W.W.W.W.W.W.W.W.E.U.d.p.p.p.p.p.p.p.p.p.p.p.s.@X*X*X*X*X*X*X*X*X*X*X'.          ",
"              u 7.0.0.0.0.0.0.0.0.0.K.W.W.W.W.W.W.W.W.W.W.W.W.T.j.a.p.p.p.p.p.p.p.p.p.p.p.l.@X*X*X*X*X*X*X*X*X*X*X*X&XV         ",
"            1 w.0.0.0.0.0.0.0.0.0.H.J.W.W.W.W.W.W.W.W.W.W.W.E.f.p.p.p.p.p.p.p.p.p.p.p.p.s.-X*X*X*X*X*X*X*X*X*X*X*X>X3X,XD       ",
"            d 0.0.0.0.0.0.0.0.0.0.0.H.W.W.W.W.W.W.W.W.W.W.W.E.f.p.p.p.p.p.p.p.p.p.p.p.p.l.*X*X*X*X*X*X*X*X*X*X*X>X2X2X2X2XS     ",
"            2 5.9.0.0.0.0.0.0.0.0.0.K.W.W.W.W.W.W.W.W.W.W.W.W.T.j.p.p.p.p.p.p.p.p.p.p.p.s.*X*X*X*X*X*X*X*X*X*X*X:X2X2X2X2X2XS   ",
"            < ` $.9.0.0.0.0.0.0.0.0.Y.W.W.W.W.W.W.W.W.W.W.W.W.W.I.p.p.p.p.p.p.p.p.p.p.p.l.*X*X*X*X*X*X*X*X*X*X*X:X2X2X2X2X2Xr.  ",
"          : O.@.@.9.0.0.0.0.0.0.0.H.Y.W.W.W.W.W.W.W.W.W.W.W.W.R.f.p.p.p.p.p.p.p.p.p.p.a.}.*X*X*X*X*X*X*X*X*X*X*X;X2X2X2X2X2XF   ",
"          ..@.@.#.9.0.0.0.0.0.0.0.H.Y.W.W.W.W.W.W.W.W.W.W.W.R.f.p.p.p.p.p.p.p.p.p.p.a.[.=X*X*X*X*X*X*X*X*X*X*X*X;X2X2X2X2X2XS   ",
"        4 +.@.@.$.q.0.0.0.0.0.0.0.0.L.W.W.W.W.W.W.W.W.W.W.E.f.p.p.p.p.p.p.p.p.p.p.l.@X*X*X*X*X*X*X*X*X*X*X*X*X*X3X2X2X2X2X,X%   ",
"        < ..@.@.@.5.0.0.0.0.0.0.0.0.0.Y.W.W.W.W.W.W.W.W.W.k.p.p.p.p.p.p.p.p.p.p.[.-X=X*X*X*X*X*X*X*X*X*X*X*X*X3X2X2X2X2X2X2X<   ",
"          ; +.@.@.$.q.0.0.0.0.0.0.0.0.K.W.W.W.W.W.W.W.W.U.p.p.p.p.p.p.p.p.p.p.[.*X*X*X*X*X*X*X*X*X*X*X*X*X*X>X2X2X2X2X2X2X2XG   ",
"        < ; +.@.@.$.0.0.0.0.0.0.0.0.0.H.W.W.W.W.W.W.W.W.I.p.p.p.p.p.p.p.p.p.t @X*X*X*X*X*X*X*X*X*X*X*X*X*X*X>X2X2X2X2X2X2X2XF   ",
"      2 ] @.@.@.@.8.0.0.0.0.0.0.0.0.0.0.K.W.W.W.W.W.W.W.T.f.p.p.p.p.p.i.6 # h q /.=X*X*X*X*X*X*X*X*X*X*X*X*X;X2X2X2X2X2X2X1X=   ",
"      _ @.@.@.@.@.9.0.0.0.0.0.0.0.0.0.0.0.K.Q.Q.W.W.W.W.E.U.i.7 7 6 9 j j j M.M.v r H H r w w B B A /.+X*X:X2X2X2X2X2X2X1X=     ",
"    4 +.@.@.@.@.@.-.0.0.0.0.0.0.0.0.0.0.0.0.H.Y.W.W.Q.F.m 9 9 e g g g g p 9 e c.V.M.M.C.C.C.C.c.x g e $ N G 2X2X2X2X2X2XF       ",
"    ) @.@.@.@.@.@.@.5.H.0.0.0.0.0.0.q.0.0.0.0.q.3.y # Y B.B.c.v j c Y c.A.B.N.j p N.A.Y i p i c x.N.A.A.A.Y * r.2X2X2X2X,X      ",
"    ) @.@.@.@.@.@.@.@.$.9.0.0.0.0.q.6.;.4.u 3 9 9 z B.c i p U x.x.x.Y j i p i x.Y 9 i Y Y i g g g g g g p p p & F 2X2X2XF       ",
"    ; @.@.@.@.@.@.@.@.@.$.q.0.e.u q h g.c.n.g p v.h.i Y j K D J  X0X9XD.U j b.Y i k i p Y C.N.j K E E Q D.W U I e S 1X<XS       ",
"      _ @.@.@.@.@.@.@.@.@.5.7.y v.V.V.x.n k b.Y n n I 9XE = & . . P xXbXbXjXwXE I b.C.C.c.I 9XjX9X* . X J xXbXjX0XI $ D         ",
"    < ] @.@.@.@.@.@.@.@.#.&.y M.N.B.Y k g g g Y U 0XnXwX. P P o 2 X J bXbXbXbXbXxXE b.j 9XnXbXwX. 0Xo % X % nXbXbXbXuXK +       ",
"    _ @.@.@.@.@.@.@.@.O.: n m.M.C.j Y b.A.A.x.Q xXbXbXJ . . X E xX* o kXbXbXbXbXbXuX* kXbXbXbX= . X . jX9X. 0XbXbXbXbXbX0X-     ",
"    ..@.@.@.@.@.@.#.: n M.M.M.M.M.x.i i p i 9XbXbXbXxX* . * P X o . . wXbXbXbXbXbXeXuXbXbXbXbXX . E o o X . ! bXbXbXbXbXnX%     ",
"    : @.@.@.@.@.#.; h.M.M.M.M.M.M.C.C.B.C.x.Q xXbXbXxX= . . . . . . O kXbXbXbXbXnX0XnXbXbXbXbXX . . . . . . wXbXbXbXbXbX0X*     ",
"      ; ..@.@.@.( g.m.M.M.M.M.M.M.v q v M.C.b.U wXbXbXE . . . . . . P bXbXbXbXnXwXE MXMXmXbXjX* . . . . . J nXbXbXxXwXW v &     ",
"          o $ # h M.M.M.M.M.M.M.M.M.M.h.M.M.V.C.x.U 0XjXE o . . + D.nXbXbXjX9XU t.y.y.=.=.3 j b.b.n.m.Y # 9X9XW p k n.V.g.&     ",
"          9 m.M.M.M.M.M.M.M.M.M.M.M.M.M.M.M.M.M.V.V.b.k U W E Q 9X9XD.W I c S.y.y.rXrX=.%.9 Z.B.C.C.C.C.j O 9 v V.V.V.M.&       ",
"        w b M.M.M.M.M.M.M.M.M.M.M.M.V.B.B.M.V.M.M.M.V.V.M.V.V.C.N.N.V.C.V.N.e.*.8.rXu.*.o.' , y h C.N.0 q N.m.+ 0 m.V.9         ",
"        q M.M.M.M.M.M.M.M.M.M.M.M.M.M.V.C.C.C.C.V.M.M.M.M.M.M.M.M.M.M.M.M.F.*.*.%.%.%.%. . . .' [ q h 9 C.C.h 0 x $ y @         ",
"      * h.M.M.M.M.M.M.M.M.M.M.M.M.M.M.M.V.V.M.C.V.M.V.V.V.V.M.M.M.M.M.M.M.t.%.X.o.o.*.y.&.' ' ` | v.+ h C.C.# B.C.x 3 3         ",
"      e M.M.M.M.M.M.M.M.M.M.M.M.M.M.M.M.M.M.V.V.M.M.b z l l l z v.M.M.M.V.2.%.X.X. .{ { ' ] ` / [ S.# h C.c k B.C.C.> 1         ",
"    * g.M.M.M.M.M.M.M.M.M.M.M.M.M.M.M.M.M.M.M.M.z d >.1.2.1.1.1.:.f z h.V.3.' ' ] ] ] ` ` ` ( ( [ a + 9 B.g x B.x A.@ %         ",
"    9 M.M.M.M.M.M.M.M.M.M.M.M.M.M.M.M.M.M.M.M.v.d 1.1.1.:.1.1.1.1.1.<.:.s :.{ ] ` ` ` / / ^ ^ ( } >.# v # & n v.# B.O           ",
"    n M.M.M.M.M.M.M.M.M.M.M.M.M.M.M.M.M.M.M.M.m.l 1.1.1.,.d d :.1.1.1.1.1.1.| _ / / / / ^ ^ ^ ( } @ v Z.B.v g 9 Y n.X           ",
"    x M.M.M.M.M.M.M.M.M.M.M.M.M.M.M.M.M.M.M.M.M.M.z d >.1.1.1.>.d d d d :.>.>.} _ _ ( ( ^ ( : - 0 N.C.C.C.C.B.C.C.w OX/.        ",
"  w g.M.M.M.M.M.M.M.M.M.M.M.M.M.M.M.M.M.M.V.M.M.M.M.h.h f :.1.1.1.1.1.<.>.:.d } } } ) ) ) ) @ x.B.Z.g # N.C.C.B.g ).#X#XA       ",
"  * h.M.M.M.M.M.M.M.M.M.M.M.M.M.M.M.M.M.M.M.M.M.M.M.M.M.M.v.h a d >.1.1.1.1.1.1.1.<.,.,.,.1.$ M.B.9 3 :.@ # & N oX#X#X#XOXH     ",
"  & m.M.M.M.M.M.M.M.M.M.M.M.M.M.M.M.M.M.M.g.h.M.M.M.M.M.M.M.M.M.M.v a s :.>.1.1.1.<.<.1.1.1.1 9 @ :.1.>.:.s M $X#X#X#X#X#X_.    ",
"  & M.M.M.M.M.M.M.M.M.M.M.M.M.M.M.M.M.M.M.h.9 h.M.M.M.M.M.M.M.M.M.M.M.M.h.b h l m l l l m l h n l l x b h.M.g.^.#X#X#X#X#X#X/.  ",
"  q M.M.M.M.M.M.M.M.M.M.M.M.M.M.M.M.M.M.M.M.h.0 g.M.M.M.M.M.M.M.M.M.M.M.M.M.M.M.M.m.M.M.M.M.M.M.M.M.M.M.M.M.M.x _.#X#X#X#X#XOXH ",
"  & m.M.M.M.M.M.M.M.M.M.M.M.M.M.M.M.M.M.M.M.M.M.M.M.M.M.M.M.M.M.M.M.M.M.M.M.M.M.M.M.M.M.M.M.M.M.M.M.M.M.M.M.M.M.e %X#X#X#X#X#X_.",
"  Z e M.M.M.M.M.M.M.M.M.M.M.M.M.M.M.M.M.M.M.M.M.M.M.M.M.M.M.M.M.M.M.M.M.M.M.M.M.M.M.M.M.M.M.M.M.M.M.M.M.M.M.M.b 9 C #X#X#X#X#X#X",
"  )._.w m.M.M.M.M.M.M.M.M.M.M.M.M.M.M.M.M.M.M.M.h.0 0 g.M.M.M.M.M.M.M.M.M.M.M.M.M.V.M.M.M.M.M.M.M.M.M.M.m.e Z _.%XC oX#X#X#X#X#X",
"  XX#XOXZ x M.M.M.M.M.M.M.M.M.M.M.M.M.M.M.M.M.M.x tXiX6XL 0 h.M.M.M.M.M.M.M.M.M.M.m.c q L L w g.M.M.v.0 Z %X#X#X#X).C #X#X#X#X#X",
"  XX#X#X#X_.N x h.M.M.M.M.M.M.M.M.M.M.M.M.M.M.M.H sXlXdXaXpX Xe c.M.M.M.M.M.M.M.g.r 4XsXlXcXaXr r B ^.OX#X#X#X#X#XXX= #X#X#X#X#X",
"  XX#X#X#X#X#XXXZ r x M.M.M.M.M.M.M.M.M.M.M.M.v.R hXnXlXdXbXlXiXR x v q q k h.e 4XpXlXhXhXcXaX].#X#X#X#X#X#X#X#X#X#XC ).#X#X#X#X",
"  oX#X#X#X#X#X#X#X#XXX^.N H r n h b g.g.h.h.g.k R hXaXaXaXfXiXpXsXL 4XsXdXqXH tX5X5XvXcXaXaXaX].#X#X#X#X#X#X#X#X#X#X#X^.#X#X#X#X",
"  oX#X#X#X#X#X#X#X#X#X#X#X#X#X%XoX_._.).).)._._..XaXaXdXcXhXtX XT H vXcXlXbXT T tXsXaXsXlXhXaX].#X#X#X#X#X#X#X#X#X#X#X^.#X#X#X#X",
"M %X#X#X#X#X#X#X#X#X#X#X#X#X#X#X#X#X#X#X#X#X$XOX.XsXaXdXvXhXaXiX6X= 5XtXyX6XB  XiXaXzXhXvXzXdX/.#X#X#X#X#X#X#X#X#X#X#XXXXX#X#X#X",
"N #X#X#X#X#X#X#X#X#X#X#X#X#X#X#X#X#X#X#X#X#X#X%X.XzXzXaXdXaXaX7X7XT tXqXqXyX|.qX4XpXvXlXhXdXaX^.#X#X#X#X#X#X#X#X#X#X#XOX).#X#X#X",
"_.#X#X#X#X#X#X#X#X#X#X#X#X#X#X#X#X#X#X#X#X#X#X%X4XlXhXaXaXzXcXsX8XA 8XgXjX6XA 6XsXaXaXaXhXdXyX).#X#X#X#X#X#X#X#X#X#X#X#X^.#X#X#X",
"$X#X#X#X#X#X#X#X#X#X#X#X#X#X#X#X#X#X#X#X#X#X#X%X.XaXaXaXaXhXsX4X(.%XXX(.`.XXOXXX].8XaXaXvXzX4X%X#X#X#X#X#X#X#X#X#X#X#XOX^.#X#X#X"
};
